<svg width="495" height="61" viewBox="0 0 495 61" fill="none" xmlns="http://www.w3.org/2000/svg">
<path d="M0.953125 2.08203H11.4297C18.4141 2.08203 23.1367 2.35156 25.5977 2.89062C28.082 3.42969 30.0977 4.8125 31.6445 7.03906C33.2148 9.24219 34 12.7695 34 17.6211C34 22.0508 33.4492 25.0273 32.3477 26.5508C31.2461 28.0742 29.0781 28.9883 25.8438 29.293C28.7734 30.0195 30.7422 30.9922 31.75 32.2109C32.7578 33.4297 33.3789 34.5547 33.6133 35.5859C33.8711 36.5938 34 39.3945 34 43.9883V59H20.2539V40.0859C20.2539 37.0391 20.0078 35.1523 19.5156 34.4258C19.0469 33.6992 17.793 33.3359 15.7539 33.3359V59H0.953125V2.08203ZM15.7539 11.8203V24.4766C17.418 24.4766 18.5781 24.2539 19.2344 23.8086C19.9141 23.3398 20.2539 21.8516 20.2539 19.3438V16.2148C20.2539 14.4102 19.9258 13.2266 19.2695 12.6641C18.6367 12.1016 17.4648 11.8203 15.7539 11.8203Z" fill="white"/>
<path d="M39.7656 2.08203H64.4453V13.4727H54.5664V24.2656H63.8125V35.0938H54.5664V47.6094H65.4297V59H39.7656V2.08203Z" fill="white"/>
<path d="M103.363 2.08203V40.1211C103.363 44.4336 103.223 47.4688 102.941 49.2266C102.66 50.9609 101.828 52.7539 100.445 54.6055C99.0625 56.4336 97.2344 57.8281 94.9609 58.7891C92.7109 59.7266 90.0508 60.1953 86.9805 60.1953C83.582 60.1953 80.582 59.6328 77.9805 58.5078C75.3789 57.3828 73.4336 55.918 72.1445 54.1133C70.8555 52.3086 70.0938 50.4102 69.8594 48.418C69.625 46.4023 69.5078 42.1836 69.5078 35.7617V2.08203H84.3086V44.7617C84.3086 47.2461 84.4375 48.8398 84.6953 49.543C84.9766 50.2227 85.5273 50.5625 86.3477 50.5625C87.2852 50.5625 87.8828 50.1875 88.1406 49.4375C88.4219 48.6641 88.5625 46.8594 88.5625 44.0234V2.08203H103.363Z" fill="white"/>
<path d="M109.094 2.08203H123.859C128.523 2.08203 132.051 2.44531 134.441 3.17188C136.855 3.89844 138.801 5.375 140.277 7.60156C141.754 9.80469 142.492 13.3672 142.492 18.2891C142.492 21.6172 141.965 23.9375 140.91 25.25C139.879 26.5625 137.828 27.5703 134.758 28.2734C138.18 29.0469 140.5 30.3359 141.719 32.1406C142.938 33.9219 143.547 36.6641 143.547 40.3672V45.6406C143.547 49.4844 143.102 52.332 142.211 54.1836C141.344 56.0352 139.949 57.3008 138.027 57.9805C136.105 58.6602 132.168 59 126.215 59H109.094V2.08203ZM123.895 11.8203V24.4766C124.527 24.4531 125.02 24.4414 125.371 24.4414C126.824 24.4414 127.75 24.0898 128.148 23.3867C128.547 22.6602 128.746 20.6094 128.746 17.2344C128.746 15.4531 128.582 14.2109 128.254 13.5078C127.926 12.7812 127.492 12.3242 126.953 12.1367C126.438 11.9492 125.418 11.8438 123.895 11.8203ZM123.895 33.3359V49.2617C125.98 49.1914 127.305 48.8633 127.867 48.2773C128.453 47.6914 128.746 46.25 128.746 43.9531V38.6445C128.746 36.207 128.488 34.7305 127.973 34.2148C127.457 33.6992 126.098 33.4062 123.895 33.3359Z" fill="white"/>
<path d="M148.891 2.08203H173.57V13.4727H163.691V24.2656H172.938V35.0938H163.691V47.6094H174.555V59H148.891V2.08203Z" fill="white"/>
<path d="M211.891 2.08203V59H198.918L191.219 33.125V59H178.844V2.08203H191.219L199.516 27.7109V2.08203H211.891Z" fill="white"/>
<path d="M225.707 2.08203V7.17969C225.707 9.82812 225.391 12.0195 224.758 13.7539C224.125 15.4648 223.023 16.918 221.453 18.1133C219.906 19.2852 218.148 20.082 216.18 20.5039V16.3906C217.586 15.6172 218.383 14.5625 218.57 13.2266H216.18V2.08203H225.707Z" fill="white"/>
<path d="M261.32 19.3086H247.574V15.0898C247.574 13.1211 247.398 11.8672 247.047 11.3281C246.695 10.7891 246.109 10.5195 245.289 10.5195C244.398 10.5195 243.719 10.8828 243.25 11.6094C242.805 12.3359 242.582 13.4375 242.582 14.9141C242.582 16.8125 242.84 18.2422 243.355 19.2031C243.848 20.1641 245.242 21.3242 247.539 22.6836C254.125 26.5977 258.273 29.8086 259.984 32.3164C261.695 34.8242 262.551 38.8672 262.551 44.4453C262.551 48.5 262.07 51.4883 261.109 53.4102C260.172 55.332 258.344 56.9492 255.625 58.2617C252.906 59.5508 249.742 60.1953 246.133 60.1953C242.172 60.1953 238.785 59.4453 235.973 57.9453C233.184 56.4453 231.355 54.5352 230.488 52.2148C229.621 49.8945 229.188 46.6016 229.188 42.3359V38.6094H242.934V45.5352C242.934 47.668 243.121 49.0391 243.496 49.6484C243.895 50.2578 244.586 50.5625 245.57 50.5625C246.555 50.5625 247.281 50.1758 247.75 49.4023C248.242 48.6289 248.488 47.4805 248.488 45.957C248.488 42.6055 248.031 40.4141 247.117 39.3828C246.18 38.3516 243.871 36.6289 240.191 34.2148C236.512 31.7773 234.074 30.0078 232.879 28.9062C231.684 27.8047 230.688 26.2812 229.891 24.3359C229.117 22.3906 228.73 19.9062 228.73 16.8828C228.73 12.5234 229.281 9.33594 230.383 7.32031C231.508 5.30469 233.312 3.73438 235.797 2.60938C238.281 1.46094 241.281 0.886719 244.797 0.886719C248.641 0.886719 251.91 1.50781 254.605 2.75C257.324 3.99219 259.117 5.5625 259.984 7.46094C260.875 9.33594 261.32 12.5352 261.32 17.0586V19.3086Z" fill="white"/>
<path d="M279.953 2.08203H305.02V13.4727H294.754V24.2656H303.895V35.0938H294.754V59H279.953V2.08203Z" fill="white"/>
<path d="M308.641 2.08203H319.117C326.102 2.08203 330.824 2.35156 333.285 2.89062C335.77 3.42969 337.785 4.8125 339.332 7.03906C340.902 9.24219 341.688 12.7695 341.688 17.6211C341.688 22.0508 341.137 25.0273 340.035 26.5508C338.934 28.0742 336.766 28.9883 333.531 29.293C336.461 30.0195 338.43 30.9922 339.438 32.2109C340.445 33.4297 341.066 34.5547 341.301 35.5859C341.559 36.5938 341.688 39.3945 341.688 43.9883V59H327.941V40.0859C327.941 37.0391 327.695 35.1523 327.203 34.4258C326.734 33.6992 325.48 33.3359 323.441 33.3359V59H308.641V2.08203ZM323.441 11.8203V24.4766C325.105 24.4766 326.266 24.2539 326.922 23.8086C327.602 23.3398 327.941 21.8516 327.941 19.3438V16.2148C327.941 14.4102 327.613 13.2266 326.957 12.6641C326.324 12.1016 325.152 11.8203 323.441 11.8203Z" fill="white"/>
<path d="M373.012 2.08203L381.484 59H366.332L365.594 48.7695H360.285L359.406 59H344.078L351.602 2.08203H373.012ZM365.172 38.6797C364.422 32.2344 363.672 24.2773 362.922 14.8086C361.422 25.6836 360.484 33.6406 360.109 38.6797H365.172Z" fill="white"/>
<path d="M417.062 2.08203V59H404.09L396.391 33.125V59H384.016V2.08203H396.391L404.688 27.7109V2.08203H417.062Z" fill="white"/>
<path d="M458.301 2.08203L449.828 27.7812L459.109 59H443.816L437.84 34.6016V59H423.039V2.08203H437.84V24.1953L444.414 2.08203H458.301Z" fill="white"/>
<path d="M493.07 19.3086H479.324V15.0898C479.324 13.1211 479.148 11.8672 478.797 11.3281C478.445 10.7891 477.859 10.5195 477.039 10.5195C476.148 10.5195 475.469 10.8828 475 11.6094C474.555 12.3359 474.332 13.4375 474.332 14.9141C474.332 16.8125 474.59 18.2422 475.105 19.2031C475.598 20.1641 476.992 21.3242 479.289 22.6836C485.875 26.5977 490.023 29.8086 491.734 32.3164C493.445 34.8242 494.301 38.8672 494.301 44.4453C494.301 48.5 493.82 51.4883 492.859 53.4102C491.922 55.332 490.094 56.9492 487.375 58.2617C484.656 59.5508 481.492 60.1953 477.883 60.1953C473.922 60.1953 470.535 59.4453 467.723 57.9453C464.934 56.4453 463.105 54.5352 462.238 52.2148C461.371 49.8945 460.938 46.6016 460.938 42.3359V38.6094H474.684V45.5352C474.684 47.668 474.871 49.0391 475.246 49.6484C475.645 50.2578 476.336 50.5625 477.32 50.5625C478.305 50.5625 479.031 50.1758 479.5 49.4023C479.992 48.6289 480.238 47.4805 480.238 45.957C480.238 42.6055 479.781 40.4141 478.867 39.3828C477.93 38.3516 475.621 36.6289 471.941 34.2148C468.262 31.7773 465.824 30.0078 464.629 28.9062C463.434 27.8047 462.438 26.2812 461.641 24.3359C460.867 22.3906 460.48 19.9062 460.48 16.8828C460.48 12.5234 461.031 9.33594 462.133 7.32031C463.258 5.30469 465.062 3.73438 467.547 2.60938C470.031 1.46094 473.031 0.886719 476.547 0.886719C480.391 0.886719 483.66 1.50781 486.355 2.75C489.074 3.99219 490.867 5.5625 491.734 7.46094C492.625 9.33594 493.07 12.5352 493.07 17.0586V19.3086Z" fill="white"/>
</svg>
